<?xml version="1.0" encoding="utf-8"?>
<!-- Generator: Adobe Illustrator 19.0.1, SVG Export Plug-In . SVG Version: 6.00 Build 0)  -->
<!DOCTYPE svg PUBLIC "-//W3C//DTD SVG 1.1//EN" "http://www.w3.org/Graphics/SVG/1.1/DTD/svg11.dtd">
<svg version="1.1" id="Layer_1" xmlns="http://www.w3.org/2000/svg" xmlns:xlink="http://www.w3.org/1999/xlink" x="0px" y="0px"
	 viewBox="0 0 1024 1024" enable-background="new 0 0 1024 1024" xml:space="preserve">
<g>
	<path fill="#57b6c1" d="M511.5,193.7c52.3,0,94.9-42.6,94.9-94.9c0-52.3-42.6-94.9-94.9-94.9c-52.3,0-94.9,42.6-94.9,94.9
		C416.6,151.2,459.2,193.7,511.5,193.7z M511.5,67.8c17.1,0,31.1,14,31.1,31.1c0,17.1-13.9,31.1-31.1,31.1
		c-17.2,0-31.1-14-31.1-31.1C480.4,81.7,494.3,67.8,511.5,67.8z"/>
	<path fill="#231F20" d="M879.2,846.9h-31.6V575.1c0-185.1-150.5-335.6-335.6-335.6c-185.1,0-335.6,150.5-335.6,335.6v271.9h-31.6
		c-17.6,0-31.9,14.3-31.9,31.9c0,17.6,14.3,31.9,31.9,31.9h63.5h166.3C389.1,973.2,445.2,1020,512,1020
		c66.8,0,122.9-46.8,137.4-109.3h166.3h63.5c17.6,0,31.9-14.3,31.9-31.9C911.1,861.2,896.8,846.9,879.2,846.9z M512,956.2
		c-31.3,0-58.4-18.7-70.5-45.5h141C570.3,937.5,543.3,956.2,512,956.2z M240.2,800.5h335.2c11.7,0,21.3-9.5,21.3-21.3
		c0-11.7-9.5-21.3-21.3-21.3H240.2V575.1c0-149.9,121.9-271.9,271.9-271.9c149.9,0,271.8,121.9,271.8,271.9V758h-82.1
		c-11.8,0-21.3,9.5-21.3,21.3c0,11.7,9.5,21.3,21.3,21.3h82.1v46.4H240.2V800.5z"/>
</g>
</svg>
