<?xml version="1.0" encoding="utf-8"?>
<!-- Generator: Adobe Illustrator 19.0.1, SVG Export Plug-In . SVG Version: 6.00 Build 0)  -->
<!DOCTYPE svg PUBLIC "-//W3C//DTD SVG 1.1//EN" "http://www.w3.org/Graphics/SVG/1.1/DTD/svg11.dtd">
<svg version="1.1" id="Layer_1" xmlns="http://www.w3.org/2000/svg" xmlns:xlink="http://www.w3.org/1999/xlink" x="0px" y="0px"
	 viewBox="0 0 1024 1024" enable-background="new 0 0 1024 1024" xml:space="preserve">
<g>
	<path d="M968.5,515.5C966.5,276,779.2,79.9,543.3,63.6v-28c0-17.5-14.2-31.7-31.7-31.7c-17.5,0-31.7,14.2-31.7,31.7v27.9
		c-108.2,7.4-209.4,52.4-287.7,129C106.6,276.4,57.8,388.5,54.9,508.2c-0.4,17.1,12.8,31.5,29.9,32.4c17.1,1.2,31.8-11.9,33.3-28.9
		c3.3-38.2,35.9-68.2,74.3-68.2c41.1,0,74.6,33.5,74.6,74.6c0,17.5,14.2,31.7,31.7,31.7c17.5,0,31.7-14.2,31.7-31.7
		c0-41.2,33.5-74.6,74.6-74.6s74.6,33.5,74.6,74.6c0,17.5,14.2,31.7,31.7,31.7c17.5,0,31.7-14.2,31.7-31.7
		c0-41.2,33.5-74.6,74.6-74.6c41,0,74.4,33.3,74.6,74.2c0,0.6-0.1,1.2-0.1,1.7c0,17.5,14.2,31.7,31.7,31.7h0.1
		c17.5,0,31.7-14.2,31.7-31.7c0-0.4,0-1,0-1.5c0.1-41,33.5-74.4,74.6-74.4c40.9,0,74.2,33.1,74.6,73.9c0,0.7-0.1,1.5-0.1,2
		c0,17.5,14.2,31.7,31.7,31.7h0.2c0.1,0,0.2,0,0.2,0c17.5,0,31.7-14.2,31.7-31.7C968.7,518.1,968.6,516.8,968.5,515.5z M192.4,380.1
		c-18.4,0-36.1,3.7-52.4,10.5C181,274.1,275.7,182,393.4,144.3c-52,59.7-90.2,158.1-104.2,275.5
		C264.3,395.3,230.1,380.1,192.4,380.1z M617.7,380.1c-32,0-61.5,11-84.9,29.3V228.1c0-11.7-9.5-21.1-21.1-21.1
		c-11.7,0-21.1,9.5-21.1,21.1v181.8c-23.5-18.6-53.2-29.8-85.5-29.8c-25.8,0-49.8,7.2-70.5,19.6c22.5-147.6,85.1-258.3,159.6-273.4
		c5.8-0.3,11.6-0.4,17.4-0.4c5.7,0,11.4,0.1,17,0.4c74.1,15,137.3,126.9,160.1,273.7C667.9,387.4,643.6,380.1,617.7,380.1z
		 M830.3,380.1c-37.4,0-71.3,14.9-96.2,39.1c-13.9-117.4-51.7-215.4-103.5-275c118.2,37.6,212.5,129.6,253,246.5
		C867.2,383.9,849.2,380.1,830.3,380.1z"/>
	<path fill="#57b6c1" d="M648.6,888c-17.5,0-31.7,14.2-31.7,31.7c0,20.4-16.6,37-37,37c-20.4,0-37-16.6-37-37v-287c0-17.5-14.2-31.7-31.7-31.7
		c-17.5,0-31.7,14.2-31.7,31.7v287c0,55.3,45,100.3,100.3,100.3c55.3,0,100.3-45,100.3-100.3C680.3,902.2,666.2,888,648.6,888z"/>
</g>
</svg>
