<?xml version="1.0" encoding="utf-8"?>
<!-- Generator: Adobe Illustrator 19.0.1, SVG Export Plug-In . SVG Version: 6.00 Build 0)  -->
<!DOCTYPE svg PUBLIC "-//W3C//DTD SVG 1.1//EN" "http://www.w3.org/Graphics/SVG/1.1/DTD/svg11.dtd">
<svg version="1.1" id="Layer_1" xmlns="http://www.w3.org/2000/svg" xmlns:xlink="http://www.w3.org/1999/xlink" x="0px" y="0px"
	 viewBox="0 0 1024 1024" enable-background="new 0 0 1024 1024" xml:space="preserve">
<g>
	<path d="M512,4C318.7,4,161.4,161.3,161.4,354.7c0,138.3,79.1,260.9,203.4,318.2v40.4c0,17.5,14.1,31.6,31.6,31.6h231.3
		c17.5,0,31.6-14.2,31.6-31.6v-40.4C783.5,615.6,862.6,493,862.6,354.7C862.6,161.3,705.3,4,512,4z M616.2,622.5
		C604,627.2,596,638.9,596,652v29.6H428V652c0-13-8-24.7-20.2-29.5C296.5,579.2,224.6,474,224.6,354.7
		c0-158.5,128.9-287.4,287.4-287.4c158.5,0,287.4,128.9,287.4,287.4C799.4,474,727.5,579.1,616.2,622.5z"/>
	<path fill="#57b6c1" d="M749.3,301.1c-2.6-11.3-13.8-18.4-25.2-15.9c-11.3,2.6-18.5,13.9-15.9,25.2c3.2,14.4,4.9,29.3,4.9,44.3
		c0,7.6-0.4,15.4-1.3,23c-1.3,11.6,7,22,18.5,23.4c0.8,0.1,1.6,0.1,2.4,0.1c10.6,0,19.7-7.9,20.9-18.7c1.1-9.2,1.6-18.5,1.6-27.8
		C755.3,336.5,753.3,318.5,749.3,301.1z"/>
	<path fill="#57b6c1" d="M707.3,209.6c-36.2-48.6-88.6-81.8-147.6-93.6c-11.4-2.2-22.5,5.1-24.8,16.6c-2.3,11.4,5.1,22.5,16.6,24.8
		c48.8,9.7,92.1,37.2,122,77.4c4.1,5.5,10.5,8.5,16.9,8.5c4.4,0,8.8-1.4,12.6-4.2C712.3,232.2,714.3,218.9,707.3,209.6z"/>
	<path d="M589.2,785.2H431.1c-17.5,0-31.6,14.2-31.6,31.6s14.2,31.6,31.6,31.6h158.1c17.5,0,31.6-14.2,31.6-31.6
		S606.7,785.2,589.2,785.2z"/>
	<path d="M572.6,883.9H451.4c-17.5,0-31.6,14.2-31.6,31.6c0,17.5,14.2,31.6,31.6,31.6h121.2c17.5,0,31.6-14.2,31.6-31.6
		C604.2,898.1,590.1,883.9,572.6,883.9z"/>
	<path d="M538.9,977.8H485c-11.6,0-21.1,9.4-21.1,21.1c0,11.7,9.4,21.1,21.1,21.1h53.9c11.6,0,21.1-9.4,21.1-21.1
		C560,987.3,550.6,977.8,538.9,977.8z"/>
	<path fill="#57b6c1" d="M621.6,344.3c-10.9-4.2-23.1,1.1-27.4,11.9L512,564.4L441.1,385h88c11.6,0,21.1-9.5,21.1-21.1c0-11.6-9.4-21.1-21.1-21.1
		h-119c-0.5,0-1.1,0.1-1.6,0.2c-0.8,0.1-1.5,0.1-2.3,0.2c-0.8,0.2-1.6,0.4-2.4,0.7c-0.5,0.2-1,0.2-1.4,0.4c-0.1,0-0.1,0.1-0.2,0.1
		c-0.8,0.4-1.6,0.8-2.4,1.2c-0.4,0.2-0.9,0.4-1.3,0.7c-0.7,0.4-1.2,0.9-1.8,1.4c-0.4,0.4-1,0.7-1.4,1.1c-0.6,0.5-1,1.2-1.5,1.7
		c-0.4,0.5-0.8,0.9-1.1,1.4c-0.5,0.7-0.9,1.6-1.3,2.3c-0.2,0.4-0.5,0.8-0.7,1.2c-0.3,0.7-0.5,1.4-0.7,2.1c-0.2,0.6-0.4,1.2-0.6,1.8
		c-0.1,0.5-0.1,1.1-0.2,1.6c-0.1,0.9-0.2,1.7-0.3,2.6c0,0.1,0,0.2,0,0.2c0,0.5,0.1,1,0.2,1.5c0,0.8,0.1,1.6,0.2,2.4
		c0.2,0.8,0.4,1.6,0.7,2.3c0.2,0.5,0.2,1,0.4,1.5l100.6,254.7c3.3,8.3,11.2,13.4,19.6,13.4c0.4,0,0.8-0.1,1.2-0.1
		c0.4,0,0.8,0.1,1.2,0.1c8.4,0,16.3-5.1,19.6-13.4l100.6-254.7C637.8,360.9,632.4,348.6,621.6,344.3z"/>
</g>
</svg>
