<?xml version="1.0" encoding="utf-8"?>
<!-- Generator: Adobe Illustrator 19.0.1, SVG Export Plug-In . SVG Version: 6.00 Build 0)  -->
<!DOCTYPE svg PUBLIC "-//W3C//DTD SVG 1.1//EN" "http://www.w3.org/Graphics/SVG/1.1/DTD/svg11.dtd">
<svg version="1.1" id="Layer_1" xmlns="http://www.w3.org/2000/svg" xmlns:xlink="http://www.w3.org/1999/xlink" x="0px" y="0px"
	 viewBox="0 0 1024 1024" enable-background="new 0 0 1024 1024" xml:space="preserve">
<path d="M1009.5,275L885.1,85.7c-11.8-17.9-31.7-28.7-53.1-28.7H192c-21.4,0-41.4,10.8-53.1,28.7L14.4,275
	c-14.7,22.4-13.8,51.6,2.3,73l444.4,593.4c12,16,30.9,25.5,50.9,25.5c20,0,38.9-9.4,50.9-25.5l444.4-593.4
	C1023.4,326.6,1024.3,297.4,1009.5,275z M513.5,120.7l120.8,168.1H389.8l120.8-168.1H513.5z M647.7,331.2L512,823.6L376.3,331.2
	H647.7z M565.7,120.7h219.8l-109.9,153L565.7,120.7z M192,120.7h266.3l-109.9,153l-73.2-101.9c-6.8-9.5-20.1-11.7-29.6-4.9
	c-9.5,6.8-11.7,20.1-4.8,29.6l66.3,92.3H81.5L192,120.7z M83.5,331.2h248.9l144.9,525.7L83.5,331.2z M546.8,856.9l144.9-525.7h44.8
	c11.7,0,21.2-9.5,21.2-21.2c0-11.7-9.5-21.2-21.2-21.2h-19.6l117.8-164l107.8,164H869c-11.7,0-21.2,9.5-21.2,21.2
	c0,11.7,9.5,21.2,21.2,21.2h71.6L546.8,856.9z"/>
</svg>
