<?xml version="1.0" encoding="utf-8"?>
<!-- Generator: Adobe Illustrator 19.0.1, SVG Export Plug-In . SVG Version: 6.00 Build 0)  -->
<!DOCTYPE svg PUBLIC "-//W3C//DTD SVG 1.1//EN" "http://www.w3.org/Graphics/SVG/1.1/DTD/svg11.dtd">
<svg version="1.1" id="Layer_1" xmlns="http://www.w3.org/2000/svg" xmlns:xlink="http://www.w3.org/1999/xlink" x="0px" y="0px"
	 viewBox="0 0 1024 1024" enable-background="new 0 0 1024 1024" xml:space="preserve">
<g>
	<path d="M734.2,80c-87.4,0-168.7,40.1-222.2,106.2C458.5,120.1,377.3,80,289.8,80C132.2,80,4,208.2,4,365.8
		c0,94,45.9,160,82.8,212.9c107.3,153.9,377,345.5,388.4,353.5c11,7.8,23.9,11.7,36.7,11.7c12.9,0,25.7-3.9,36.7-11.7
		c11.4-8.1,281.2-199.6,388.4-353.5c36.9-53,82.9-118.9,82.9-212.9C1020,208.2,891.8,80,734.2,80z M885,542.4
		c-102.1,146.6-373,338-373,338s-270.8-191.4-373-338c-37.7-54.1-71.4-105.5-71.4-176.6c0-122.7,99.5-222.2,222.2-222.2
		c90.7,0,168.5,54.4,203.1,132.3v-0.4h0.1c2.6,8.1,10.1,14,19,14c9,0,16.5-5.9,19-14h0.3c34.6-77.7,112.4-131.9,202.9-131.9
		c122.7,0,222.2,99.5,222.2,222.2C956.4,436.9,922.7,488.3,885,542.4z"/>
	<path fill="#57b6c1" d="M586.5,323.8c3.1,1.6,6.4,2.4,9.7,2.4c7.7,0,15.1-4.2,18.9-11.5c0.8-1.5,1.5-3,2.2-4.6c21.2-47.7,68.6-78.5,120.5-78.5
		c35.8,0,69.3,14.1,94.4,39.8c8.2,8.4,21.6,8.5,30,0.4c8.4-8.2,8.5-21.6,0.4-30c-33.1-33.9-77.4-52.6-124.7-52.6
		c-68.7,0-131.2,40.7-159.3,103.6c-0.4,0.9-0.8,1.7-1.2,2.6C572,305.7,576.1,318.5,586.5,323.8z"/>
	<path fill="#57b6c1" d="M891,342.4c-11.7,0-21.2,9.5-21.2,21.2c0,42.7-21.1,76-55.7,125.8C746.6,586.2,589,711.6,512,769.9
		c-77-58.4-234.6-183.7-302.1-280.5c-34.7-49.8-55.7-83.1-55.7-125.8c0-72.8,59.2-132,132-132c52.1,0,99.5,30.9,120.6,78.6
		c0.7,1.7,1.5,3.3,2.4,4.9c5.4,10.4,18.2,14.4,28.6,9c10.4-5.4,14.4-18.2,9-28.6c-0.4-0.8-0.8-1.6-1.2-2.4
		c-28-63.1-90.6-103.9-159.4-103.9c-96.2,0-174.4,78.2-174.4,174.4c0,54.9,26.2,96.8,63.4,150c72.2,103.7,234.1,232.3,324.1,299.8
		c3.8,2.8,8.2,4.2,12.7,4.2c4.5,0,8.9-1.4,12.7-4.2c90.1-67.5,251.9-196.1,324.2-299.8c37.1-53.2,63.4-95.2,63.4-150
		C912.2,351.9,902.7,342.4,891,342.4z"/>
</g>
</svg>
