<?xml version="1.0" encoding="utf-8"?>
<!-- Generator: Adobe Illustrator 19.0.1, SVG Export Plug-In . SVG Version: 6.00 Build 0)  -->
<!DOCTYPE svg PUBLIC "-//W3C//DTD SVG 1.1//EN" "http://www.w3.org/Graphics/SVG/1.1/DTD/svg11.dtd">
<svg version="1.1" id="Layer_1" xmlns="http://www.w3.org/2000/svg" xmlns:xlink="http://www.w3.org/1999/xlink" x="0px" y="0px"
	 viewBox="0 0 1024 1024" enable-background="new 0 0 1024 1024" xml:space="preserve">
<g>
	<path fill="#231F20" d="M1001.1,740l-0.7-0.7c-11.8-11.7-27.8-18.2-44.4-18.2c0,0,0,0,0,0h-15.5v-15.5c0-34.9-28.2-63.2-63.1-63.3
		l-15.8,0v-15.6c0-16.8-6.7-32.9-18.5-44.7l-98.3-98.3c36.9-130.6,1.1-271.6-96.5-369.1C577,43.3,482.3,4,381.5,4
		C280.6,4,185.8,43.3,114.6,114.6C43.3,185.9,4,280.6,4,381.4C4,482.2,43.3,577,114.6,648.3c71.2,71.3,166,110.5,266.8,110.5
		c34.9,0,69.1-4.7,102.3-14.1l256.7,256.7c11.9,11.9,28,18.5,44.7,18.5c1.1,0,2.3,0,3.4-0.1l162.9-8.8c32.3-1.7,58-27.5,59.8-59.8
		l8.8-162.9C1020.9,770.3,1014.1,752.7,1001.1,740z M948,948L785,956.7L500.5,672.1c-38.1,15.6-78.6,23.4-119.2,23.4
		c-80.4,0-160.8-30.6-222.1-92C36.6,480.8,36.6,282,159.3,159.3c61.4-61.3,141.8-92,222.2-92c80.4,0,160.8,30.7,222.1,92
		c92.3,92.2,115.1,227.6,68.6,341.2l126.1,126.2v78.7l78.9,0.2v78.8l78.8,0l0.7,0.7L948,948z"/>
	<path fill="#231F20" d="M288.6,403.5c30.7,0,59.6-12,81.3-33.7c21.7-21.7,33.6-50.6,33.6-81.2c0-30.7-11.9-59.6-33.6-81.2
		c-21.7-21.7-50.5-33.7-81.2-33.7c-30.7,0-59.6,12-81.3,33.7c-44.8,44.8-44.8,117.7,0,162.5C229,391.5,257.9,403.5,288.6,403.5z
		 M237.2,237.1c13.7-13.8,32-21.3,51.4-21.3c19.4,0,37.7,7.6,51.4,21.3c13.7,13.7,21.3,32,21.3,51.4c0,19.4-7.6,37.7-21.3,51.4
		c-13.8,13.8-32,21.3-51.4,21.3c-19.4,0-37.7-7.6-51.4-21.3C208.8,311.7,208.8,265.5,237.2,237.1z"/>
	<path fill="#57b6c1" d="M578.3,548.5c86.4-101.7,81.9-254.9-14.2-350.9c-36.8-36.8-83.2-61.4-134.2-71.2
		c-11.4-2.2-22.5,5.3-24.7,16.7c-2.2,11.4,5.3,22.5,16.7,24.7c42.6,8.2,81.5,28.8,112.3,59.6c84.6,84.6,84.6,222.3,0,306.9
		c-41,41-95.5,63.6-153.5,63.6c-58,0-112.5-22.6-153.5-63.6c-30.8-30.8-51.4-69.7-59.6-112.3c-2.2-11.4-13.3-18.9-24.7-16.7
		c-11.4,2.2-18.9,13.3-16.7,24.7c9.8,51,34.4,97.4,71.2,134.1c49,49,114.1,75.9,183.3,75.9c62.2,0,120.9-21.8,167.7-61.7
		l290.5,290.5c4.1,4.1,9.5,6.2,14.9,6.2c5.4,0,10.8-2.1,14.9-6.2c8.2-8.2,8.2-21.6,0-29.8L578.3,548.5z"/>
</g>
</svg>
