<?xml version="1.0" encoding="utf-8"?>
<!-- Generator: Adobe Illustrator 19.0.1, SVG Export Plug-In . SVG Version: 6.00 Build 0)  -->
<!DOCTYPE svg PUBLIC "-//W3C//DTD SVG 1.1//EN" "http://www.w3.org/Graphics/SVG/1.1/DTD/svg11.dtd">
<svg version="1.1" id="Layer_1" xmlns="http://www.w3.org/2000/svg" xmlns:xlink="http://www.w3.org/1999/xlink" x="0px" y="0px"
	 viewBox="0 0 1024 1024" enable-background="new 0 0 1024 1024" xml:space="preserve">
<g>
	<path fill="#231F20" d="M819.7,4H204.3c-34.9,0-63.2,28.3-63.2,63.2v204.9c0,21.1,10.6,40.9,28.2,52.6l201.1,133.9
		C276.9,509.1,213.4,608,213.4,721.4c0,164.7,134,298.6,298.6,298.6c164.6,0,298.6-133.9,298.6-298.6
		c0-113.4-63.5-212.2-156.9-262.8l201-133.9c17.6-11.7,28.2-31.5,28.2-52.6V67.2C882.9,32.3,854.6,4,819.7,4z M747.4,721.4
		c0,130-105.4,235.4-235.4,235.4c-130,0-235.4-105.4-235.4-235.4C276.6,591.4,382,486,512,486C642,486,747.4,591.4,747.4,721.4z
		 M819.7,272.1l-120.4,80.2V232c0-11.6-9.4-21.1-21.1-21.1c-11.6,0-21.1,9.4-21.1,21.1v148.4l-76,50.6c-22.2-5.3-45.4-8.2-69.2-8.2
		c-23.8,0-47,2.9-69.3,8.2l-77.3-51.5V232c0-11.6-9.4-21.1-21.1-21.1c-11.6,0-21.1,9.4-21.1,21.1v119.4l-119.1-79.3V67.2h119.1v56.4
		c0,11.6,9.4,21.1,21.1,21.1c11.6,0,21.1-9.5,21.1-21.1V67.2h291.7v56.4c0,11.6,9.4,21.1,21.1,21.1c11.6,0,21.1-9.5,21.1-21.1V67.2
		h120.4V272.1z"/>
	<path fill="#57b6c1" d="M474.2,556l-35.1,71l-78.4,11.4c-15.9,2.3-29.1,13.4-34,28.7c-5,15.2-0.8,32,10.7,43.2l56.7,55.3
		l-13.4,78.1c-2.7,15.8,3.8,31.8,16.8,41.2c7.3,5.3,16,8,24.8,8c6.7,0,13.4-1.6,19.6-4.8l70.1-36.9l70.1,36.9
		c6.2,3.2,12.9,4.8,19.6,4.8c8.7,0,17.4-2.7,24.8-8c13-9.4,19.5-25.4,16.8-41.2l-13.4-78.1l56.7-55.3c11.5-11.2,15.6-27.9,10.7-43.2
		c-5-15.3-18.1-26.4-34-28.7L584.8,627l-35-71c-7.1-14.4-21.8-23.5-37.8-23.5C496,532.5,481.3,541.6,474.2,556z M556.9,665.5
		l100.3,14.6l-72.6,70.8l17.1,99.9L512,803.6l-89.7,47.2l17.1-99.9l-72.6-70.8l100.3-14.6l44.9-90.9L556.9,665.5z"/>
</g>
</svg>
