<?xml version="1.0" encoding="utf-8"?>
<!-- Generator: Adobe Illustrator 19.0.1, SVG Export Plug-In . SVG Version: 6.00 Build 0)  -->
<!DOCTYPE svg PUBLIC "-//W3C//DTD SVG 1.1//EN" "http://www.w3.org/Graphics/SVG/1.1/DTD/svg11.dtd">
<svg version="1.1" id="Layer_1" xmlns="http://www.w3.org/2000/svg" xmlns:xlink="http://www.w3.org/1999/xlink" x="0px" y="0px"
	 viewBox="0 0 1024 1024" enable-background="new 0 0 1024 1024" xml:space="preserve">
<g>
	<path fill="#231F20" d="M824.8,310.9H199.2c-35,0-63.4,28.4-63.4,63.4v582.2c0,35,28.4,63.4,63.4,63.4h625.5
		c35,0,63.4-28.4,63.4-63.4V374.3C888.2,339.3,859.8,310.9,824.8,310.9z M199.2,915.6h293v41h-293V915.6z M534.6,956.6v-41h174.2
		c11.7,0,21.1-9.5,21.1-21.1c0-11.7-9.5-21.1-21.1-21.1H534.6V532.2c0-11.7-9.5-21.1-21.1-21.1c-11.7,0-21.1,9.5-21.1,21.1v341.1
		h-293V374.3h293v71.2c0,11.7,9.5,21.1,21.1,21.1c11.7,0,21.1-9.5,21.1-21.1v-71.2h290.2v498.9H798c-11.7,0-21.1,9.5-21.1,21.1
		c0,11.7,9.5,21.1,21.1,21.1h26.8v41H534.6z"/>
	<path fill="#57b6c1" d="M283.3,199c40,33.7,194.3,63.1,224.8,68.7c1.3,0.2,2.5,0.3,3.8,0.3c0.1,0,0.2,0,0.2,0
		c0.2,0,0.5-0.1,0.7-0.1c0.2,0,0.4,0.1,0.7,0.1c1.3,0,2.5-0.1,3.8-0.3c30.5-5.6,184.8-35,224.8-68.7c22.6-19,36.4-45.6,38.9-75.1
		c2.5-29.4-6.5-58-25.5-80.6C734.4,18.3,703.6,4,670.8,4c-25.9,0-51.2,9.2-71.1,25.9c-28.5,24-64.7,105.1-87.1,160.5
		C490.2,135,454,53.9,425.5,29.9C405.6,13.2,380.4,4,354.4,4c-32.7,0-63.6,14.3-84.6,39.4c-19,22.6-28.1,51.2-25.5,80.6
		C246.8,153.4,260.7,180.1,283.3,199z M627,62.3c12.3-10.3,27.8-16,43.8-16c20.2,0,39.3,8.9,52.3,24.3
		c11.7,13.9,17.3,31.6,15.8,49.7c-1.6,18.2-10.1,34.6-24,46.4c-20.2,17-102.6,38.4-168,52.1C571.5,156.7,606.7,79.3,627,62.3z
		 M302.2,70.6c13-15.4,32-24.3,52.3-24.3c16,0,31.6,5.7,43.8,16c20.2,17,55.4,94.5,80.2,156.5c-65.4-13.7-147.7-35.1-168-52.1
		c-13.9-11.7-22.5-28.2-24-46.4C284.8,102.2,290.4,84.5,302.2,70.6z"/>
</g>
</svg>
